<?xml version="1.0" encoding="utf-8"?>
<!-- Generator: Adobe Illustrator 16.0.0, SVG Export Plug-In . SVG Version: 6.00 Build 0)  -->
<!DOCTYPE svg PUBLIC "-//W3C//DTD SVG 1.1//EN" "http://www.w3.org/Graphics/SVG/1.1/DTD/svg11.dtd">
<svg version="1.1" id="Layer_1" xmlns="http://www.w3.org/2000/svg" xmlns:xlink="http://www.w3.org/1999/xlink" x="0px" y="0px"
	 width="2220px" height="1700px" viewBox="0 0 2220 1700" enable-background="new 0 0 2220 1700" xml:space="preserve">
<g>
	<defs>
		<path id="SVGID_1_" d="M2164.344,26.094c-21.283,5.095-42.137,11.993-63.177,18.109c0.416,2.347,0.831,4.694,1.247,7.041
			c15.912-1.203,31.886-3.686,47.706-2.938c5.776,0.275,16.259,8.541,16.013,12.645c-4.683,77.817-30.898,148.306-71.761,213.471
			c-2.979-0.701-5.959-1.401-8.938-2.101c6.722-38.494,13.274-77.02,20.282-115.462c1.78-9.766,5.724-19.142,7.45-28.913
			c6.021-34.082-17.363-59.536-51.109-53.378c-24.686,4.504-50.404,9.551-72.584,20.563
			c-128.992,64.042-257.199,129.671-385.367,195.362c-30.514,15.64-50.072,41.383-61.743,75.991
			c51.263-22.824,100.331-44.671,149.4-66.518c1.747,2.038,3.496,4.076,5.246,6.114c-7.382,15.254-14.764,30.508-23.237,48.019
			c7.382-2.061,13.775-3.846,24.359-6.801c-8.025,15.569-14.697,28.512-24.366,47.272c50.356-28.309,94.267-56.439,149.716-58.803
			c-22.707,37.459-44.188,72.898-65.672,108.337l4.666,5.008c20.785-9.679,41.572-19.358,62.358-29.036
			c1.013,1.189,2.024,2.378,3.036,3.566c-4.719,8.44-9.438,16.879-14.152,25.313c27.76,11.99,3.797,34.156,10.37,52.315
			c8.111-8.496,15.662-16.405,28.675-30.033c13.451,36.587,25.35,68.944,37.428,101.797c4.066-6.017,9.182-13.587,16.636-24.619
			c15.024,29.832,28.539,56.669,43.229,85.838c-38.504,10.321-74.559,19.986-110.387,29.59c2.956,32.573,3.41,32.999,33.671,31.282
			c28.848-1.638,57.693-3.322,87.298-5.029c-3.409,111.974,32.923,215.021,54.286,320.419
			c10.973,54.137,2.439,101.389-24.641,147.439c-41.508,70.582-101.111,124.519-162.637,176.572
			c-29.236,24.735-60.45,47.182-89.112,72.539c-64.187,56.786-134.037,83.41-212.388,68.441
			c-25.125-5.533-54.183-15.1-83.979-31.883c-6.347-3.575-12.343-7.26-18-11c-51.534-32.617-95.989-45.702-126.384-51.688
			c-24.301-4.785-71.061-9.185-164.784-10.48c-52.47-0.724-100.786-11.124-147.453-36.073
			c-67.526-36.101-140.188-57.196-217.034-62.219c-2.552-0.166-5.115-0.252-7.677-0.265c-6.148-2.874-15.623-7.647-26.362-14.288
			c-2.368,2.057-4.731,4.122-7.091,6.191c20.303,12.875,36.656,19.376,37.491,19.703l0.053-0.135
			c33.826,19.13,67.625,37.576,100.166,58.022c26.456,16.623,51.912,35.366,75.588,55.749
			c29.814,25.667,50.095,57.554,48.365,99.036c20.314-16.793,38.577-35.454,60.09-48.922
			c48.364-30.277,95.082-32.443,140.756-35.621c40.59-2.826,101.883-2.486,175.276,15.989c22.643,8.813,45.992,18.542,69.922,29.294
			c14.459,6.497,28.485,13.079,42.078,19.706c11.567,6.894,29.672,16.702,53.059,25.297c29.507,10.843,120.727,39.029,213.038,2.499
			c32.324-12.792,62.986-33.121,91.46-62.517c56.339-58.158,106.942-121.893,159.774-183.421
			c33.896-39.479,66.586-80.008,100.961-119.057c18.984-21.567,25.281-46.457,19.17-72.605
			c-9.027-38.637-19.535-77.296-33.796-114.256c-23.154-60.004-49.073-118.988-75.351-177.721
			c-16.209-36.228-17.019-69.111,4.678-104.288c30.579-49.582,44.697-104.302,48.869-163.204
			c6.772-95.66,38.185-185.622,73.627-274.176c20.208-50.489,38.931-101.583,57.443-152.723c3.514-9.702,4.648-21.041,3.797-31.371
			c-1.188-14.435-8.488-23.986-21.675-23.987C2169.793,25.095,2167.168,25.418,2164.344,26.094"/>
	</defs>
	<use xlink:href="#SVGID_1_"  overflow="visible" fill="#FFFFFF"/>
	<clipPath id="SVGID_2_">
		<use xlink:href="#SVGID_1_"  overflow="visible"/>
	</clipPath>
	<rect x="727.38" y="25.095" clip-path="url(#SVGID_2_)" fill="#FFFFFF" width="1467.366" height="1515.855"/>
</g>
<g>
	<defs>
		<path id="SVGID_3_" d="M700.611,243.103c6.239,4.993,10.709,12.196,15.994,18.383c5.474,3.153,10.949,6.31,16.423,9.464
			c32.556,24.04,65.341,47.778,97.61,72.196c37.26,28.195,73.68,57.517,111.4,85.068c7.391,5.399,20.037,8.797,28.602,6.615
			c133.853-34.123,268.759-30.612,404.109-12.771c38.651,5.095,77.097,11.755,116.738,17.866
			c-2.655-17.339-7.442-33.506-7.108-49.566c0.691-33.04,17.361-59.757,39.216-83.421c41.813-45.276,94.177-75.52,148.058-103.553
			c11.108-5.78,22.419-11.168,33.636-16.738c-0.64-1.788-1.28-3.576-1.921-5.365c-18.301,4.24-36.788,7.81-54.87,12.837
			c-74.923,20.833-141.89,56.762-202.392,105.64c-9.741,7.87-24.179,13.25-36.72,13.827
			c-144.553,6.656-286.42,29.516-425.584,68.852c-16.222,4.585-28.489,2.88-42.78-6.202
			c-100.856-64.089-202.279-127.289-303.547-190.732c-6.304-3.949-12.823-7.556-21.311-8.299
			C644.36,199.112,672.738,220.792,700.611,243.103"/>
	</defs>
	<use xlink:href="#SVGID_3_"  overflow="visible" fill="#FFFFFF"/>
	<clipPath id="SVGID_4_">
		<use xlink:href="#SVGID_3_"  overflow="visible"/>
	</clipPath>
	<rect x="616.164" y="177.204" clip-path="url(#SVGID_4_)" fill="#FFFFFF" width="1089.124" height="262.72"/>
</g>
<g>
	<defs>
		<path id="SVGID_5_" d="M939.017,856.958c-0.426,3.367-0.851,6.734-1.277,10.103c16.771,4.56,33.306,10.829,50.38,13.205
			c17.603,2.45,31.244,5.639,29.411,27.728c-0.24,2.901,3.545,6.135,9.785,16.142c19.56-42.984,72.007-43.49,94.611-89.306
			c-4.498-0.104-8.963-0.155-13.396-0.155C1047.945,834.674,993.271,844.177,939.017,856.958"/>
	</defs>
	<use xlink:href="#SVGID_5_"  overflow="visible" fill="#FFFFFF"/>
	<clipPath id="SVGID_6_">
		<use xlink:href="#SVGID_5_"  overflow="visible"/>
	</clipPath>
	<rect x="937.74" y="834.674" clip-path="url(#SVGID_6_)" fill="#FFFFFF" width="184.187" height="89.461"/>
</g>
<g>
	<defs>
		<path id="SVGID_7_" d="M1874.447,1088.332c-152.73-44.215-322.83-85.086-501.486-101.496
			C1547.7,1022.201,1719.076,1056.887,1874.447,1088.332"/>
	</defs>
	<use xlink:href="#SVGID_7_"  overflow="visible" fill="#FFFFFF"/>
	<clipPath id="SVGID_8_">
		<use xlink:href="#SVGID_7_"  overflow="visible"/>
	</clipPath>
	<rect x="1372.961" y="986.836" clip-path="url(#SVGID_8_)" fill="#FFFFFF" width="501.486" height="101.496"/>
</g>
<g>
	<defs>
		<path id="SVGID_9_" d="M1653.721,1135.969c-92.189-55.109-192.337-89.854-291.026-114.253
			C1456.523,1058.552,1555.121,1097.26,1653.721,1135.969"/>
	</defs>
	<use xlink:href="#SVGID_9_"  overflow="visible" fill="#FFFFFF"/>
	<clipPath id="SVGID_10_">
		<use xlink:href="#SVGID_9_"  overflow="visible"/>
	</clipPath>
	<rect x="1362.694" y="1021.716" clip-path="url(#SVGID_10_)" fill="#FFFFFF" width="291.026" height="114.253"/>
</g>
<g>
	<defs>
		<path id="SVGID_11_" d="M543.934,1166.189l266.174-136.52C713.091,1059.286,626.589,1109.583,543.934,1166.189"/>
	</defs>
	<use xlink:href="#SVGID_11_"  overflow="visible" fill="#FFFFFF"/>
	<clipPath id="SVGID_12_">
		<use xlink:href="#SVGID_11_"  overflow="visible"/>
	</clipPath>
	<rect x="543.934" y="1029.67" clip-path="url(#SVGID_12_)" fill="#FFFFFF" width="266.174" height="136.52"/>
</g>
<g>
	<defs>
		<path id="SVGID_13_" d="M614.663,1155.979c69.679-38.97,148.596-83.104,227.511-127.238
			C756.787,1061.726,678.927,1107.697,614.663,1155.979"/>
	</defs>
	<use xlink:href="#SVGID_13_"  overflow="visible" fill="#FFFFFF"/>
	<clipPath id="SVGID_14_">
		<use xlink:href="#SVGID_13_"  overflow="visible"/>
	</clipPath>
	<rect x="614.663" y="1028.74" clip-path="url(#SVGID_14_)" fill="#FFFFFF" width="227.511" height="127.238"/>
</g>
<g>
	<defs>
		<path id="SVGID_15_" d="M1433.428,1015.796c114.215,31.053,228.43,62.106,342.646,93.161c0.402-1.405,0.804-2.809,1.207-4.212
			c-114.242-31.062-228.483-62.122-342.727-93.183L1433.428,1015.796z"/>
	</defs>
	<use xlink:href="#SVGID_15_"  overflow="visible" fill="#FFFFFF"/>
	<clipPath id="SVGID_16_">
		<use xlink:href="#SVGID_15_"  overflow="visible"/>
	</clipPath>
	<rect x="1433.428" y="1011.563" clip-path="url(#SVGID_16_)" fill="#FFFFFF" width="343.854" height="97.395"/>
</g>
<g>
	<defs>
		<path id="SVGID_17_" d="M534.972,1137.002c2.555-0.764,5.237-1.245,7.648-2.33c73.767-33.185,147.508-66.429,220.607-101.127
			C681.141,1054.189,606.411,1091.577,534.972,1137.002"/>
	</defs>
	<use xlink:href="#SVGID_17_"  overflow="visible" fill="#FFFFFF"/>
	<clipPath id="SVGID_18_">
		<use xlink:href="#SVGID_17_"  overflow="visible"/>
	</clipPath>
	<rect x="534.972" y="1033.545" clip-path="url(#SVGID_18_)" fill="#FFFFFF" width="228.255" height="103.457"/>
</g>
<g>
	<defs>
		<path id="SVGID_19_" d="M738.455,950.229c2.101-58.658,4.204-117.317,6.423-179.258
			C727.256,811.274,723.924,891.642,738.455,950.229"/>
	</defs>
	<use xlink:href="#SVGID_19_"  overflow="visible" fill="#FFFFFF"/>
	<clipPath id="SVGID_20_">
		<use xlink:href="#SVGID_19_"  overflow="visible"/>
	</clipPath>
	<rect x="723.924" y="770.971" clip-path="url(#SVGID_20_)" fill="#FFFFFF" width="20.954" height="179.258"/>
</g>
<g>
	<defs>
		<path id="SVGID_21_" d="M876.267,638.509c90.614-57.807,192.173-72.393,295.453-78.782
			c-16.485,31.705-31.646,60.861-47.182,90.736c-64.184-12.898-128.561-7.501-185.53,34.414
			C917.228,668.781,897.897,654.494,876.267,638.509 M532.419,157.707c29.813,160.714,53.023,323.802,169.02,456.303
			c-2.871,13.899-13.549,45.483-49.099,116.327c-11.311,16.705-19.719,35.96-25.406,57.756
			c-17.074,65.438-18.196,131.751-15.601,198.527c1.008,25.951,2.25,51.894,3.548,81.54c14.247-20.447,24.465-41.608,53.35-33.855
			c0.135-7.762,0.675-13.578,0.272-19.329c-6.139-87.737,1.758-174.532,18.738-260.528c2.014-10.197,9.305-21.364,17.482-27.936
			c19.801-15.912,41.57-29.377,62.546-43.827c2.601,1.633,5.202,3.267,7.804,4.9c0.601,17.887,3.278,35.99,1.445,53.623
			c-7.89,75.887-4.429,151.461,3.517,227.025c0.769,7.316,1.836,14.603,3.178,25.154c66.225-52.825,114.122-114.616,139.079-192.98
			c5.578-17.515,10.337-35.302,15.064-53.072c14.319-53.829,46.082-79.757,102.62-77.591c27.836,1.066,55.669,8.461,82.868,15.464
			c6.81,1.753,12.653,12.332,16.405,20.082c31.716,65.507,77.183,119.314,135.997,161.946c5.541,4.018,11.787,7.112,17.9,10.261
			c1.088,0.561,2.474,0.545,4.351,0.529c1.007-0.01,2.156-0.019,3.479,0.063c-48.962-75.164-100.708-147.484-116.964-236.308
			c2.836-2.012,5.67-4.026,8.506-6.039c7.487,8.186,16.436,15.458,22.217,24.71c30.367,48.606,59.3,98.116,90.167,146.394
			c9.202,14.396,23.044,25.827,37.633,36.086c-33.323-88.409-72.186-172.795-133.025-246.661
			c25.571-30.182,54.824-48.736,88.931-60.475c11.805-4.063,19.356-2.429,27.132,8.336
			c59.633,82.554,116.044,167.015,159.507,259.499c8.12,17.28,17.712,33.873,25.65,51.229
			c21.775,47.609,46.974,62.222,104.035,57.154c-20.879-38.494-41.726-75.598-61.266-113.377
			c-15.432-29.834-29.787-60.267-43.222-91.045c-2.014-4.616,2.37-16.961,6.012-18.008c6.237-1.792,17.746,0.089,20.906,4.664
			c19.046,27.579,38.006,55.476,53.793,84.98c17.641,32.968,31.864,67.763,47.595,101.755c3.118,6.735,6.329,13.432,9.851,20.897
			c19.285-5.932,30.154-13.329,21.839-34.883c-40.066-103.835-88.756-203.302-148.344-297.362
			c-8.893-14.038-18.045-27.913-27.43-42.409c47.301-9.733,98.415,14.844,117.246,54.981
			c34.139,72.762,68.392,145.47,102.369,218.307c2.225,4.772,2.505,10.451,4.195,17.955c37.931-40.883,42.23-63.714,23.433-94.463
			c-17.167-28.084-32.14-57.52-47.724-86.553c-4.203-7.832-7.106-16.363-13.535-31.444c13.354,5.104,20.8,7.082,27.418,10.612
			c55.683,29.711,65.612,80.203,67.572,137.924c3.229,95.134-59.084,147.782-122.621,200.164c-7.795,6.426-23.284,5.79-34.938,4.894
			c-75.589-5.812-151.123-12.377-226.633-19.174c-35.037-3.154-66.406,7.268-98.123,24.029c2.642,1.34,4.269,2.945,5.65,2.756
			c106.765-14.511,210.653,6.45,314.656,25.569c24.861,4.569,49.712,9.569,74.134,16.013c13.66,3.604,22.879,0.364,32.67-9.215
			c44.77-43.799,70.875-97.846,83.81-157.835c16.692-77.422,11.651-152.551-36.013-219.814
			c-38.455-54.268-93.93-84.131-154.726-106.267c-122.134-44.472-244.813-41.431-368.055-5.21
			c-8.013,2.355-16.408,5.078-24.583,4.95c-85.032-1.329-165.937,18.813-243.936,49.902c-84.5,33.68-167.604,70.858-251.344,106.447
			c-19.367,8.23-35.902,18.747-49.787,31.514c14.518-30.439,24.704-54.608,30.383-72.118c2.78-8.573,4.267-14.914,4.904-19.676
			c12.93-6.459,27.717-13.276,40.233-23.018c6.501-5.06,7.926-19.076,8.245-29.13c0.647-20.397,3.416-37.427,34.092-34.503
			c-11.809-15.929-20.625-27.819-31.705-42.764c35.026-6.136,66.888-11.717,101.618-17.801
			c-23.304-67.687-57.068-126.085-109.702-172.85c-7.238-6.43-13.8-13.619-20.674-20.459c-5.474-3.154-10.949-6.311-16.423-9.464
			c-59.757-36.482-119.513-72.963-179.269-109.444C535.697,153.93,534.058,155.819,532.419,157.707"/>
	</defs>
	<use xlink:href="#SVGID_21_"  overflow="visible" fill="#FFFFFF"/>
	<clipPath id="SVGID_22_">
		<use xlink:href="#SVGID_21_"  overflow="visible"/>
	</clipPath>
	<rect x="532.419" y="152.042" clip-path="url(#SVGID_22_)" fill="#FFFFFF" width="1288.35" height="916.118"/>
</g>
<g>
	<defs>
		<path id="SVGID_23_" d="M501.398,1286.163c-17.112,13.577-34.68,26.586-52.153,39.707c-25.101,18.85-50.487,37.283-82.287,43.332
			c-24.205,4.604-46.762,2.279-62.58-19.379c-7.035-9.63-12.404-20.508-18.186-31.009c-1.955-3.551-3.611-7.277-5.536-11.645
			c-1.36,6.061-3.858,11.836-7.398,16.806c-6.332,8.894-15.04,20.091-26.275,27.818c-54.391,37.415-113.247,49.382-174.931,35.571
			c-0.926-0.208-1.853-0.438-2.776-0.689c-8.27-2.248-17.047-6.417-26.089-12.389c-7.036-4.649-12.421-10.334-16.087-16.682
			c-6.707,54.41-8.319,108.857,3.041,162.873c9.942,47.269,31.626,88.19,71.649,117.111c42.449,30.673,90.472,38.448,141.214,30.291
			c57.243-9.2,104.793-38.1,144.509-78.795c67.657-69.327,133.715-140.216,200.262-210.622c0.24-0.255,0.468-0.544,0.68-0.86
			c-2.444-2.021-4.218-4.841-4.903-8.108c-8.644-41.263-31.699-67.608-70.481-80.538c-3.004-1.003-5.534-2.97-7.281-5.524
			C504.359,1284.068,502.913,1284.962,501.398,1286.163"/>
	</defs>
	<use xlink:href="#SVGID_23_"  overflow="visible" fill="#FFFFFF"/>
	<clipPath id="SVGID_24_">
		<use xlink:href="#SVGID_23_"  overflow="visible"/>
	</clipPath>
	<rect x="18.781" y="1283.434" clip-path="url(#SVGID_24_)" fill="#FFFFFF" width="569.674" height="392.604"/>
</g>
<g>
	<defs>
		<path id="SVGID_25_" d="M1031.102,982.388c-22.535,0.95-38.914,9.214-64.107,23.245c-36.83,20.514-52.051,30.947-74.83,43.991
			c-15.267,8.744-38.019,21-67.191,33.818c0,0-83.111,39.458-163.922,87.109c-2.678,1.58-5.354,3.169-8.025,4.765
			c-42.38,25.335-83.341,52.649-110.449,77.395c-0.183,0.167-0.363,0.334-0.539,0.499c0.655,0.234,1.329,0.481,2.042,0.746
			c41.09,15.261,66.938,45.593,76.884,90.188c33.305-33.529,65.028-63.032,94.116-88.646c2.337-2.057,4.656-4.089,6.959-6.097
			c21.67-18.896,39.958-33.997,56.531-47.402c89.735-72.589,134.603-108.883,167.594-128.375c11.852-7.002,34.987-20.142,65-42
			c18.924-13.781,33.666-25.993,43-34c9.255,4.022,23.024,9.777,40,16c7.546,2.767,39.274,14.257,94,28
			c36.29,9.114,29.765,5.926,56,13c24.106,6.5,45.297,13.42,79.41,20.829c22.429,4.871,30.299,5.736,39.711,4.027
			c12.879-2.342,24.935-9.76,44.229-23.952c-83.186,20.972-155.108-6.084-227.41-31.13c-38.91-13.479-77.553-28.252-117.323-38.553
			c-9.231-2.391-18.338-3.55-27.305-3.55C1034.014,982.296,1032.557,982.326,1031.102,982.388"/>
	</defs>
	<use xlink:href="#SVGID_25_"  overflow="visible" fill="#FFFFFF"/>
	<clipPath id="SVGID_26_">
		<use xlink:href="#SVGID_25_"  overflow="visible"/>
	</clipPath>
	<rect x="542.039" y="982.296" clip-path="url(#SVGID_26_)" fill="#FFFFFF" width="865.477" height="361.85"/>
</g>
<g>
	<defs>
		<path id="SVGID_27_" d="M101.15,1347.472c-0.85-0.13-1.715-0.239-2.536-0.483c-8.064-2.406-16.69-4.72-19.119-14.041
			c-2.473-9.488,4.009-15.754,10.449-21.125c16.502-13.762,36.337-20.676,56.825-25.376c11.89-2.729,24.261-3.359,37.064-5.018
			c9.839,2.152,20.088,3.611,29.809,6.72c12.38,3.959,15.46,14.988,7.319,25.13c-3.507,4.37-8.086,8.226-12.887,11.153
			c-26.179,15.961-53.961,24.831-83.634,24.832C116.802,1349.264,109.045,1348.677,101.15,1347.472 M84.096,1279.303
			c-17.655,9.469-33.729,21.088-43.548,39.289c-3.622,6.715-5.19,13.395-4.749,19.665c0.659,9.351,5.791,17.787,15.293,24.063
			c7.309,4.83,15.633,9.156,24.093,11.051c59.409,13.302,114.006,0.771,163.671-33.393c8.953-6.157,16.32-15.329,22.721-24.318
			c4.908-6.895,7.341-16.828,5.121-26.439c-1.731-7.503-6.298-14.808-14.735-20.315c-17.798-11.616-37.855-14.394-57.834-15.686
			c-1.049-0.012-2.101-0.018-3.146-0.019C152.935,1253.201,117.328,1261.479,84.096,1279.303"/>
	</defs>
	<use xlink:href="#SVGID_27_"  overflow="visible" fill="#FFFFFF"/>
	<clipPath id="SVGID_28_">
		<use xlink:href="#SVGID_27_"  overflow="visible"/>
	</clipPath>
	<rect x="35.358" y="1253.201" clip-path="url(#SVGID_28_)" fill="#FFFFFF" width="233.56" height="133.472"/>
</g>
<g>
	<defs>
		<path id="SVGID_29_" d="M525.573,1266.174c-1.179,0.785-2.367,1.958-3.724,3.582c-1.234,1.478-2.606,3.325-4.242,5.598
			c44.26,14.756,70.443,45.671,79.981,91.201c1.252,0.1,2.503,0.196,3.754,0.294c0.571-1.313,1.315-2.661,2.097-4.016
			c0.848-1.473,1.737-2.954,2.497-4.41c1.344-2.572,2.283-5.063,1.847-7.285c-7.862-39.952-29.492-69.179-68.695-83.738
			c-4.184-1.555-7.036-2.494-9.38-2.494C528.191,1264.905,526.888,1265.299,525.573,1266.174"/>
	</defs>
	<use xlink:href="#SVGID_29_"  overflow="visible" fill="#FFFFFF"/>
	<clipPath id="SVGID_30_">
		<use xlink:href="#SVGID_29_"  overflow="visible"/>
	</clipPath>
	<rect x="517.607" y="1264.905" clip-path="url(#SVGID_30_)" fill="#FFFFFF" width="90.612" height="101.943"/>
</g>
</svg>
